<?xml version="1.0" encoding="utf-8" standalone="no"?>
<!DOCTYPE svg PUBLIC "-//W3C//DTD SVG 1.1//EN"
  "http://www.w3.org/Graphics/SVG/1.1/DTD/svg11.dtd">
<!-- Created with matplotlib (https://matplotlib.org/) -->
<svg height="936pt" version="1.1" viewBox="0 0 1080 936" width="1080pt" xmlns="http://www.w3.org/2000/svg" xmlns:xlink="http://www.w3.org/1999/xlink">
 <defs>
  <style type="text/css">
*{stroke-linecap:butt;stroke-linejoin:round;}
  </style>
 </defs>
 <g id="figure_1">
  <g id="patch_1">
   <path d="M 0 936 
L 1080 936 
L 1080 0 
L 0 0 
z
" style="fill:#ffffff;"/>
  </g>
  <g id="axes_1">
   <g id="patch_2">
    <path d="M 135 833.04 
L 972 833.04 
L 972 112.32 
L 135 112.32 
z
" style="fill:#eaeaf2;"/>
   </g>
   <g id="matplotlib.axis_1">
    <g id="xtick_1">
     <g id="line2d_1">
      <path clip-path="url(#p91f7850557)" d="M 173.045455 833.04 
L 173.045455 112.32 
" style="fill:none;stroke:#ffffff;stroke-linecap:round;"/>
     </g>
     <g id="text_1">
      <!-- 0 -->
      <defs>
       <path d="M 31.78125 66.40625 
Q 24.171875 66.40625 20.328125 58.90625 
Q 16.5 51.421875 16.5 36.375 
Q 16.5 21.390625 20.328125 13.890625 
Q 24.171875 6.390625 31.78125 6.390625 
Q 39.453125 6.390625 43.28125 13.890625 
Q 47.125 21.390625 47.125 36.375 
Q 47.125 51.421875 43.28125 58.90625 
Q 39.453125 66.40625 31.78125 66.40625 
z
M 31.78125 74.21875 
Q 44.046875 74.21875 50.515625 64.515625 
Q 56.984375 54.828125 56.984375 36.375 
Q 56.984375 17.96875 50.515625 8.265625 
Q 44.046875 -1.421875 31.78125 -1.421875 
Q 19.53125 -1.421875 13.0625 8.265625 
Q 6.59375 17.96875 6.59375 36.375 
Q 6.59375 54.828125 13.0625 64.515625 
Q 19.53125 74.21875 31.78125 74.21875 
z
" id="DejaVuSans-48"/>
      </defs>
      <g style="fill:#262626;" transform="translate(169.54608 850.898281)scale(0.11 -0.11)">
       <use xlink:href="#DejaVuSans-48"/>
      </g>
     </g>
    </g>
    <g id="xtick_2">
     <g id="line2d_2">
      <path clip-path="url(#p91f7850557)" d="M 303.115385 833.04 
L 303.115385 112.32 
" style="fill:none;stroke:#ffffff;stroke-linecap:round;"/>
     </g>
     <g id="text_2">
      <!-- 20 -->
      <defs>
       <path d="M 19.1875 8.296875 
L 53.609375 8.296875 
L 53.609375 0 
L 7.328125 0 
L 7.328125 8.296875 
Q 12.9375 14.109375 22.625 23.890625 
Q 32.328125 33.6875 34.8125 36.53125 
Q 39.546875 41.84375 41.421875 45.53125 
Q 43.3125 49.21875 43.3125 52.78125 
Q 43.3125 58.59375 39.234375 62.25 
Q 35.15625 65.921875 28.609375 65.921875 
Q 23.96875 65.921875 18.8125 64.3125 
Q 13.671875 62.703125 7.8125 59.421875 
L 7.8125 69.390625 
Q 13.765625 71.78125 18.9375 73 
Q 24.125 74.21875 28.421875 74.21875 
Q 39.75 74.21875 46.484375 68.546875 
Q 53.21875 62.890625 53.21875 53.421875 
Q 53.21875 48.921875 51.53125 44.890625 
Q 49.859375 40.875 45.40625 35.40625 
Q 44.1875 33.984375 37.640625 27.21875 
Q 31.109375 20.453125 19.1875 8.296875 
z
" id="DejaVuSans-50"/>
      </defs>
      <g style="fill:#262626;" transform="translate(296.116635 850.898281)scale(0.11 -0.11)">
       <use xlink:href="#DejaVuSans-50"/>
       <use x="63.623047" xlink:href="#DejaVuSans-48"/>
      </g>
     </g>
    </g>
    <g id="xtick_3">
     <g id="line2d_3">
      <path clip-path="url(#p91f7850557)" d="M 433.185315 833.04 
L 433.185315 112.32 
" style="fill:none;stroke:#ffffff;stroke-linecap:round;"/>
     </g>
     <g id="text_3">
      <!-- 40 -->
      <defs>
       <path d="M 37.796875 64.3125 
L 12.890625 25.390625 
L 37.796875 25.390625 
z
M 35.203125 72.90625 
L 47.609375 72.90625 
L 47.609375 25.390625 
L 58.015625 25.390625 
L 58.015625 17.1875 
L 47.609375 17.1875 
L 47.609375 0 
L 37.796875 0 
L 37.796875 17.1875 
L 4.890625 17.1875 
L 4.890625 26.703125 
z
" id="DejaVuSans-52"/>
      </defs>
      <g style="fill:#262626;" transform="translate(426.186565 850.898281)scale(0.11 -0.11)">
       <use xlink:href="#DejaVuSans-52"/>
       <use x="63.623047" xlink:href="#DejaVuSans-48"/>
      </g>
     </g>
    </g>
    <g id="xtick_4">
     <g id="line2d_4">
      <path clip-path="url(#p91f7850557)" d="M 563.255245 833.04 
L 563.255245 112.32 
" style="fill:none;stroke:#ffffff;stroke-linecap:round;"/>
     </g>
     <g id="text_4">
      <!-- 60 -->
      <defs>
       <path d="M 33.015625 40.375 
Q 26.375 40.375 22.484375 35.828125 
Q 18.609375 31.296875 18.609375 23.390625 
Q 18.609375 15.53125 22.484375 10.953125 
Q 26.375 6.390625 33.015625 6.390625 
Q 39.65625 6.390625 43.53125 10.953125 
Q 47.40625 15.53125 47.40625 23.390625 
Q 47.40625 31.296875 43.53125 35.828125 
Q 39.65625 40.375 33.015625 40.375 
z
M 52.59375 71.296875 
L 52.59375 62.3125 
Q 48.875 64.0625 45.09375 64.984375 
Q 41.3125 65.921875 37.59375 65.921875 
Q 27.828125 65.921875 22.671875 59.328125 
Q 17.53125 52.734375 16.796875 39.40625 
Q 19.671875 43.65625 24.015625 45.921875 
Q 28.375 48.1875 33.59375 48.1875 
Q 44.578125 48.1875 50.953125 41.515625 
Q 57.328125 34.859375 57.328125 23.390625 
Q 57.328125 12.15625 50.6875 5.359375 
Q 44.046875 -1.421875 33.015625 -1.421875 
Q 20.359375 -1.421875 13.671875 8.265625 
Q 6.984375 17.96875 6.984375 36.375 
Q 6.984375 53.65625 15.1875 63.9375 
Q 23.390625 74.21875 37.203125 74.21875 
Q 40.921875 74.21875 44.703125 73.484375 
Q 48.484375 72.75 52.59375 71.296875 
z
" id="DejaVuSans-54"/>
      </defs>
      <g style="fill:#262626;" transform="translate(556.256495 850.898281)scale(0.11 -0.11)">
       <use xlink:href="#DejaVuSans-54"/>
       <use x="63.623047" xlink:href="#DejaVuSans-48"/>
      </g>
     </g>
    </g>
    <g id="xtick_5">
     <g id="line2d_5">
      <path clip-path="url(#p91f7850557)" d="M 693.325175 833.04 
L 693.325175 112.32 
" style="fill:none;stroke:#ffffff;stroke-linecap:round;"/>
     </g>
     <g id="text_5">
      <!-- 80 -->
      <defs>
       <path d="M 31.78125 34.625 
Q 24.75 34.625 20.71875 30.859375 
Q 16.703125 27.09375 16.703125 20.515625 
Q 16.703125 13.921875 20.71875 10.15625 
Q 24.75 6.390625 31.78125 6.390625 
Q 38.8125 6.390625 42.859375 10.171875 
Q 46.921875 13.96875 46.921875 20.515625 
Q 46.921875 27.09375 42.890625 30.859375 
Q 38.875 34.625 31.78125 34.625 
z
M 21.921875 38.8125 
Q 15.578125 40.375 12.03125 44.71875 
Q 8.5 49.078125 8.5 55.328125 
Q 8.5 64.0625 14.71875 69.140625 
Q 20.953125 74.21875 31.78125 74.21875 
Q 42.671875 74.21875 48.875 69.140625 
Q 55.078125 64.0625 55.078125 55.328125 
Q 55.078125 49.078125 51.53125 44.71875 
Q 48 40.375 41.703125 38.8125 
Q 48.828125 37.15625 52.796875 32.3125 
Q 56.78125 27.484375 56.78125 20.515625 
Q 56.78125 9.90625 50.3125 4.234375 
Q 43.84375 -1.421875 31.78125 -1.421875 
Q 19.734375 -1.421875 13.25 4.234375 
Q 6.78125 9.90625 6.78125 20.515625 
Q 6.78125 27.484375 10.78125 32.3125 
Q 14.796875 37.15625 21.921875 38.8125 
z
M 18.3125 54.390625 
Q 18.3125 48.734375 21.84375 45.5625 
Q 25.390625 42.390625 31.78125 42.390625 
Q 38.140625 42.390625 41.71875 45.5625 
Q 45.3125 48.734375 45.3125 54.390625 
Q 45.3125 60.0625 41.71875 63.234375 
Q 38.140625 66.40625 31.78125 66.40625 
Q 25.390625 66.40625 21.84375 63.234375 
Q 18.3125 60.0625 18.3125 54.390625 
z
" id="DejaVuSans-56"/>
      </defs>
      <g style="fill:#262626;" transform="translate(686.326425 850.898281)scale(0.11 -0.11)">
       <use xlink:href="#DejaVuSans-56"/>
       <use x="63.623047" xlink:href="#DejaVuSans-48"/>
      </g>
     </g>
    </g>
    <g id="xtick_6">
     <g id="line2d_6">
      <path clip-path="url(#p91f7850557)" d="M 823.395105 833.04 
L 823.395105 112.32 
" style="fill:none;stroke:#ffffff;stroke-linecap:round;"/>
     </g>
     <g id="text_6">
      <!-- 100 -->
      <defs>
       <path d="M 12.40625 8.296875 
L 28.515625 8.296875 
L 28.515625 63.921875 
L 10.984375 60.40625 
L 10.984375 69.390625 
L 28.421875 72.90625 
L 38.28125 72.90625 
L 38.28125 8.296875 
L 54.390625 8.296875 
L 54.390625 0 
L 12.40625 0 
z
" id="DejaVuSans-49"/>
      </defs>
      <g style="fill:#262626;" transform="translate(812.89698 850.898281)scale(0.11 -0.11)">
       <use xlink:href="#DejaVuSans-49"/>
       <use x="63.623047" xlink:href="#DejaVuSans-48"/>
       <use x="127.246094" xlink:href="#DejaVuSans-48"/>
      </g>
     </g>
    </g>
    <g id="xtick_7">
     <g id="line2d_7">
      <path clip-path="url(#p91f7850557)" d="M 953.465035 833.04 
L 953.465035 112.32 
" style="fill:none;stroke:#ffffff;stroke-linecap:round;"/>
     </g>
     <g id="text_7">
      <!-- 120 -->
      <g style="fill:#262626;" transform="translate(942.96691 850.898281)scale(0.11 -0.11)">
       <use xlink:href="#DejaVuSans-49"/>
       <use x="63.623047" xlink:href="#DejaVuSans-50"/>
       <use x="127.246094" xlink:href="#DejaVuSans-48"/>
      </g>
     </g>
    </g>
    <g id="text_8">
     <!-- Sample Index -->
     <defs>
      <path d="M 53.515625 70.515625 
L 53.515625 60.890625 
Q 47.90625 63.578125 42.921875 64.890625 
Q 37.9375 66.21875 33.296875 66.21875 
Q 25.25 66.21875 20.875 63.09375 
Q 16.5 59.96875 16.5 54.203125 
Q 16.5 49.359375 19.40625 46.890625 
Q 22.3125 44.4375 30.421875 42.921875 
L 36.375 41.703125 
Q 47.40625 39.59375 52.65625 34.296875 
Q 57.90625 29 57.90625 20.125 
Q 57.90625 9.515625 50.796875 4.046875 
Q 43.703125 -1.421875 29.984375 -1.421875 
Q 24.8125 -1.421875 18.96875 -0.25 
Q 13.140625 0.921875 6.890625 3.21875 
L 6.890625 13.375 
Q 12.890625 10.015625 18.65625 8.296875 
Q 24.421875 6.59375 29.984375 6.59375 
Q 38.421875 6.59375 43.015625 9.90625 
Q 47.609375 13.234375 47.609375 19.390625 
Q 47.609375 24.75 44.3125 27.78125 
Q 41.015625 30.8125 33.5 32.328125 
L 27.484375 33.5 
Q 16.453125 35.6875 11.515625 40.375 
Q 6.59375 45.0625 6.59375 53.421875 
Q 6.59375 63.09375 13.40625 68.65625 
Q 20.21875 74.21875 32.171875 74.21875 
Q 37.3125 74.21875 42.625 73.28125 
Q 47.953125 72.359375 53.515625 70.515625 
z
" id="DejaVuSans-83"/>
      <path d="M 34.28125 27.484375 
Q 23.390625 27.484375 19.1875 25 
Q 14.984375 22.515625 14.984375 16.5 
Q 14.984375 11.71875 18.140625 8.90625 
Q 21.296875 6.109375 26.703125 6.109375 
Q 34.1875 6.109375 38.703125 11.40625 
Q 43.21875 16.703125 43.21875 25.484375 
L 43.21875 27.484375 
z
M 52.203125 31.203125 
L 52.203125 0 
L 43.21875 0 
L 43.21875 8.296875 
Q 40.140625 3.328125 35.546875 0.953125 
Q 30.953125 -1.421875 24.3125 -1.421875 
Q 15.921875 -1.421875 10.953125 3.296875 
Q 6 8.015625 6 15.921875 
Q 6 25.140625 12.171875 29.828125 
Q 18.359375 34.515625 30.609375 34.515625 
L 43.21875 34.515625 
L 43.21875 35.40625 
Q 43.21875 41.609375 39.140625 45 
Q 35.0625 48.390625 27.6875 48.390625 
Q 23 48.390625 18.546875 47.265625 
Q 14.109375 46.140625 10.015625 43.890625 
L 10.015625 52.203125 
Q 14.9375 54.109375 19.578125 55.046875 
Q 24.21875 56 28.609375 56 
Q 40.484375 56 46.34375 49.84375 
Q 52.203125 43.703125 52.203125 31.203125 
z
" id="DejaVuSans-97"/>
      <path d="M 52 44.1875 
Q 55.375 50.25 60.0625 53.125 
Q 64.75 56 71.09375 56 
Q 79.640625 56 84.28125 50.015625 
Q 88.921875 44.046875 88.921875 33.015625 
L 88.921875 0 
L 79.890625 0 
L 79.890625 32.71875 
Q 79.890625 40.578125 77.09375 44.375 
Q 74.3125 48.1875 68.609375 48.1875 
Q 61.625 48.1875 57.5625 43.546875 
Q 53.515625 38.921875 53.515625 30.90625 
L 53.515625 0 
L 44.484375 0 
L 44.484375 32.71875 
Q 44.484375 40.625 41.703125 44.40625 
Q 38.921875 48.1875 33.109375 48.1875 
Q 26.21875 48.1875 22.15625 43.53125 
Q 18.109375 38.875 18.109375 30.90625 
L 18.109375 0 
L 9.078125 0 
L 9.078125 54.6875 
L 18.109375 54.6875 
L 18.109375 46.1875 
Q 21.1875 51.21875 25.484375 53.609375 
Q 29.78125 56 35.6875 56 
Q 41.65625 56 45.828125 52.96875 
Q 50 49.953125 52 44.1875 
z
" id="DejaVuSans-109"/>
      <path d="M 18.109375 8.203125 
L 18.109375 -20.796875 
L 9.078125 -20.796875 
L 9.078125 54.6875 
L 18.109375 54.6875 
L 18.109375 46.390625 
Q 20.953125 51.265625 25.265625 53.625 
Q 29.59375 56 35.59375 56 
Q 45.5625 56 51.78125 48.09375 
Q 58.015625 40.1875 58.015625 27.296875 
Q 58.015625 14.40625 51.78125 6.484375 
Q 45.5625 -1.421875 35.59375 -1.421875 
Q 29.59375 -1.421875 25.265625 0.953125 
Q 20.953125 3.328125 18.109375 8.203125 
z
M 48.6875 27.296875 
Q 48.6875 37.203125 44.609375 42.84375 
Q 40.53125 48.484375 33.40625 48.484375 
Q 26.265625 48.484375 22.1875 42.84375 
Q 18.109375 37.203125 18.109375 27.296875 
Q 18.109375 17.390625 22.1875 11.75 
Q 26.265625 6.109375 33.40625 6.109375 
Q 40.53125 6.109375 44.609375 11.75 
Q 48.6875 17.390625 48.6875 27.296875 
z
" id="DejaVuSans-112"/>
      <path d="M 9.421875 75.984375 
L 18.40625 75.984375 
L 18.40625 0 
L 9.421875 0 
z
" id="DejaVuSans-108"/>
      <path d="M 56.203125 29.59375 
L 56.203125 25.203125 
L 14.890625 25.203125 
Q 15.484375 15.921875 20.484375 11.0625 
Q 25.484375 6.203125 34.421875 6.203125 
Q 39.59375 6.203125 44.453125 7.46875 
Q 49.3125 8.734375 54.109375 11.28125 
L 54.109375 2.78125 
Q 49.265625 0.734375 44.1875 -0.34375 
Q 39.109375 -1.421875 33.890625 -1.421875 
Q 20.796875 -1.421875 13.15625 6.1875 
Q 5.515625 13.8125 5.515625 26.8125 
Q 5.515625 40.234375 12.765625 48.109375 
Q 20.015625 56 32.328125 56 
Q 43.359375 56 49.78125 48.890625 
Q 56.203125 41.796875 56.203125 29.59375 
z
M 47.21875 32.234375 
Q 47.125 39.59375 43.09375 43.984375 
Q 39.0625 48.390625 32.421875 48.390625 
Q 24.90625 48.390625 20.390625 44.140625 
Q 15.875 39.890625 15.1875 32.171875 
z
" id="DejaVuSans-101"/>
      <path id="DejaVuSans-32"/>
      <path d="M 9.8125 72.90625 
L 19.671875 72.90625 
L 19.671875 0 
L 9.8125 0 
z
" id="DejaVuSans-73"/>
      <path d="M 54.890625 33.015625 
L 54.890625 0 
L 45.90625 0 
L 45.90625 32.71875 
Q 45.90625 40.484375 42.875 44.328125 
Q 39.84375 48.1875 33.796875 48.1875 
Q 26.515625 48.1875 22.3125 43.546875 
Q 18.109375 38.921875 18.109375 30.90625 
L 18.109375 0 
L 9.078125 0 
L 9.078125 54.6875 
L 18.109375 54.6875 
L 18.109375 46.1875 
Q 21.34375 51.125 25.703125 53.5625 
Q 30.078125 56 35.796875 56 
Q 45.21875 56 50.046875 50.171875 
Q 54.890625 44.34375 54.890625 33.015625 
z
" id="DejaVuSans-110"/>
      <path d="M 45.40625 46.390625 
L 45.40625 75.984375 
L 54.390625 75.984375 
L 54.390625 0 
L 45.40625 0 
L 45.40625 8.203125 
Q 42.578125 3.328125 38.25 0.953125 
Q 33.9375 -1.421875 27.875 -1.421875 
Q 17.96875 -1.421875 11.734375 6.484375 
Q 5.515625 14.40625 5.515625 27.296875 
Q 5.515625 40.1875 11.734375 48.09375 
Q 17.96875 56 27.875 56 
Q 33.9375 56 38.25 53.625 
Q 42.578125 51.265625 45.40625 46.390625 
z
M 14.796875 27.296875 
Q 14.796875 17.390625 18.875 11.75 
Q 22.953125 6.109375 30.078125 6.109375 
Q 37.203125 6.109375 41.296875 11.75 
Q 45.40625 17.390625 45.40625 27.296875 
Q 45.40625 37.203125 41.296875 42.84375 
Q 37.203125 48.484375 30.078125 48.484375 
Q 22.953125 48.484375 18.875 42.84375 
Q 14.796875 37.203125 14.796875 27.296875 
z
" id="DejaVuSans-100"/>
      <path d="M 54.890625 54.6875 
L 35.109375 28.078125 
L 55.90625 0 
L 45.3125 0 
L 29.390625 21.484375 
L 13.484375 0 
L 2.875 0 
L 24.125 28.609375 
L 4.6875 54.6875 
L 15.28125 54.6875 
L 29.78125 35.203125 
L 44.28125 54.6875 
z
" id="DejaVuSans-120"/>
     </defs>
     <g style="fill:#262626;" transform="translate(451.188281 879.98125)scale(0.3 -0.3)">
      <use xlink:href="#DejaVuSans-83"/>
      <use x="63.476562" xlink:href="#DejaVuSans-97"/>
      <use x="124.755859" xlink:href="#DejaVuSans-109"/>
      <use x="222.167969" xlink:href="#DejaVuSans-112"/>
      <use x="285.644531" xlink:href="#DejaVuSans-108"/>
      <use x="313.427734" xlink:href="#DejaVuSans-101"/>
      <use x="374.951172" xlink:href="#DejaVuSans-32"/>
      <use x="406.738281" xlink:href="#DejaVuSans-73"/>
      <use x="436.230469" xlink:href="#DejaVuSans-110"/>
      <use x="499.609375" xlink:href="#DejaVuSans-100"/>
      <use x="563.085938" xlink:href="#DejaVuSans-101"/>
      <use x="622.859375" xlink:href="#DejaVuSans-120"/>
     </g>
    </g>
   </g>
   <g id="matplotlib.axis_2">
    <g id="ytick_1">
     <g id="line2d_8">
      <path clip-path="url(#p91f7850557)" d="M 135 827.167777 
L 972 827.167777 
" style="fill:none;stroke:#ffffff;stroke-linecap:round;"/>
     </g>
     <g id="text_9">
      <!-- −0.5 -->
      <defs>
       <path d="M 10.59375 35.5 
L 73.1875 35.5 
L 73.1875 27.203125 
L 10.59375 27.203125 
z
" id="DejaVuSans-8722"/>
       <path d="M 10.6875 12.40625 
L 21 12.40625 
L 21 0 
L 10.6875 0 
z
" id="DejaVuSans-46"/>
       <path d="M 10.796875 72.90625 
L 49.515625 72.90625 
L 49.515625 64.59375 
L 19.828125 64.59375 
L 19.828125 46.734375 
Q 21.96875 47.46875 24.109375 47.828125 
Q 26.265625 48.1875 28.421875 48.1875 
Q 40.625 48.1875 47.75 41.5 
Q 54.890625 34.8125 54.890625 23.390625 
Q 54.890625 11.625 47.5625 5.09375 
Q 40.234375 -1.421875 26.90625 -1.421875 
Q 22.3125 -1.421875 17.546875 -0.640625 
Q 12.796875 0.140625 7.71875 1.703125 
L 7.71875 11.625 
Q 12.109375 9.234375 16.796875 8.0625 
Q 21.484375 6.890625 26.703125 6.890625 
Q 35.15625 6.890625 40.078125 11.328125 
Q 45.015625 15.765625 45.015625 23.390625 
Q 45.015625 31 40.078125 35.4375 
Q 35.15625 39.890625 26.703125 39.890625 
Q 22.75 39.890625 18.8125 39.015625 
Q 14.890625 38.140625 10.796875 36.28125 
z
" id="DejaVuSans-53"/>
      </defs>
      <g style="fill:#262626;" transform="translate(98.788906 831.346918)scale(0.11 -0.11)">
       <use xlink:href="#DejaVuSans-8722"/>
       <use x="83.789062" xlink:href="#DejaVuSans-48"/>
       <use x="147.412109" xlink:href="#DejaVuSans-46"/>
       <use x="179.199219" xlink:href="#DejaVuSans-53"/>
      </g>
     </g>
    </g>
    <g id="ytick_2">
     <g id="line2d_9">
      <path clip-path="url(#p91f7850557)" d="M 135 697.672183 
L 972 697.672183 
" style="fill:none;stroke:#ffffff;stroke-linecap:round;"/>
     </g>
     <g id="text_10">
      <!-- 0.0 -->
      <g style="fill:#262626;" transform="translate(108.006563 701.851323)scale(0.11 -0.11)">
       <use xlink:href="#DejaVuSans-48"/>
       <use x="63.623047" xlink:href="#DejaVuSans-46"/>
       <use x="95.410156" xlink:href="#DejaVuSans-48"/>
      </g>
     </g>
    </g>
    <g id="ytick_3">
     <g id="line2d_10">
      <path clip-path="url(#p91f7850557)" d="M 135 568.176588 
L 972 568.176588 
" style="fill:none;stroke:#ffffff;stroke-linecap:round;"/>
     </g>
     <g id="text_11">
      <!-- 0.5 -->
      <g style="fill:#262626;" transform="translate(108.006563 572.355729)scale(0.11 -0.11)">
       <use xlink:href="#DejaVuSans-48"/>
       <use x="63.623047" xlink:href="#DejaVuSans-46"/>
       <use x="95.410156" xlink:href="#DejaVuSans-53"/>
      </g>
     </g>
    </g>
    <g id="ytick_4">
     <g id="line2d_11">
      <path clip-path="url(#p91f7850557)" d="M 135 438.680994 
L 972 438.680994 
" style="fill:none;stroke:#ffffff;stroke-linecap:round;"/>
     </g>
     <g id="text_12">
      <!-- 1.0 -->
      <g style="fill:#262626;" transform="translate(108.006563 442.860135)scale(0.11 -0.11)">
       <use xlink:href="#DejaVuSans-49"/>
       <use x="63.623047" xlink:href="#DejaVuSans-46"/>
       <use x="95.410156" xlink:href="#DejaVuSans-48"/>
      </g>
     </g>
    </g>
    <g id="ytick_5">
     <g id="line2d_12">
      <path clip-path="url(#p91f7850557)" d="M 135 309.185399 
L 972 309.185399 
" style="fill:none;stroke:#ffffff;stroke-linecap:round;"/>
     </g>
     <g id="text_13">
      <!-- 1.5 -->
      <g style="fill:#262626;" transform="translate(108.006563 313.36454)scale(0.11 -0.11)">
       <use xlink:href="#DejaVuSans-49"/>
       <use x="63.623047" xlink:href="#DejaVuSans-46"/>
       <use x="95.410156" xlink:href="#DejaVuSans-53"/>
      </g>
     </g>
    </g>
    <g id="ytick_6">
     <g id="line2d_13">
      <path clip-path="url(#p91f7850557)" d="M 135 179.689805 
L 972 179.689805 
" style="fill:none;stroke:#ffffff;stroke-linecap:round;"/>
     </g>
     <g id="text_14">
      <!-- 2.0 -->
      <g style="fill:#262626;" transform="translate(108.006563 183.868946)scale(0.11 -0.11)">
       <use xlink:href="#DejaVuSans-50"/>
       <use x="63.623047" xlink:href="#DejaVuSans-46"/>
       <use x="95.410156" xlink:href="#DejaVuSans-48"/>
      </g>
     </g>
    </g>
    <g id="text_15">
     <!-- Sensor Reading -->
     <defs>
      <path d="M 44.28125 53.078125 
L 44.28125 44.578125 
Q 40.484375 46.53125 36.375 47.5 
Q 32.28125 48.484375 27.875 48.484375 
Q 21.1875 48.484375 17.84375 46.4375 
Q 14.5 44.390625 14.5 40.28125 
Q 14.5 37.15625 16.890625 35.375 
Q 19.28125 33.59375 26.515625 31.984375 
L 29.59375 31.296875 
Q 39.15625 29.25 43.1875 25.515625 
Q 47.21875 21.78125 47.21875 15.09375 
Q 47.21875 7.46875 41.1875 3.015625 
Q 35.15625 -1.421875 24.609375 -1.421875 
Q 20.21875 -1.421875 15.453125 -0.5625 
Q 10.6875 0.296875 5.421875 2 
L 5.421875 11.28125 
Q 10.40625 8.6875 15.234375 7.390625 
Q 20.0625 6.109375 24.8125 6.109375 
Q 31.15625 6.109375 34.5625 8.28125 
Q 37.984375 10.453125 37.984375 14.40625 
Q 37.984375 18.0625 35.515625 20.015625 
Q 33.0625 21.96875 24.703125 23.78125 
L 21.578125 24.515625 
Q 13.234375 26.265625 9.515625 29.90625 
Q 5.8125 33.546875 5.8125 39.890625 
Q 5.8125 47.609375 11.28125 51.796875 
Q 16.75 56 26.8125 56 
Q 31.78125 56 36.171875 55.265625 
Q 40.578125 54.546875 44.28125 53.078125 
z
" id="DejaVuSans-115"/>
      <path d="M 30.609375 48.390625 
Q 23.390625 48.390625 19.1875 42.75 
Q 14.984375 37.109375 14.984375 27.296875 
Q 14.984375 17.484375 19.15625 11.84375 
Q 23.34375 6.203125 30.609375 6.203125 
Q 37.796875 6.203125 41.984375 11.859375 
Q 46.1875 17.53125 46.1875 27.296875 
Q 46.1875 37.015625 41.984375 42.703125 
Q 37.796875 48.390625 30.609375 48.390625 
z
M 30.609375 56 
Q 42.328125 56 49.015625 48.375 
Q 55.71875 40.765625 55.71875 27.296875 
Q 55.71875 13.875 49.015625 6.21875 
Q 42.328125 -1.421875 30.609375 -1.421875 
Q 18.84375 -1.421875 12.171875 6.21875 
Q 5.515625 13.875 5.515625 27.296875 
Q 5.515625 40.765625 12.171875 48.375 
Q 18.84375 56 30.609375 56 
z
" id="DejaVuSans-111"/>
      <path d="M 41.109375 46.296875 
Q 39.59375 47.171875 37.8125 47.578125 
Q 36.03125 48 33.890625 48 
Q 26.265625 48 22.1875 43.046875 
Q 18.109375 38.09375 18.109375 28.8125 
L 18.109375 0 
L 9.078125 0 
L 9.078125 54.6875 
L 18.109375 54.6875 
L 18.109375 46.1875 
Q 20.953125 51.171875 25.484375 53.578125 
Q 30.03125 56 36.53125 56 
Q 37.453125 56 38.578125 55.875 
Q 39.703125 55.765625 41.0625 55.515625 
z
" id="DejaVuSans-114"/>
      <path d="M 44.390625 34.1875 
Q 47.5625 33.109375 50.5625 29.59375 
Q 53.5625 26.078125 56.59375 19.921875 
L 66.609375 0 
L 56 0 
L 46.6875 18.703125 
Q 43.0625 26.03125 39.671875 28.421875 
Q 36.28125 30.8125 30.421875 30.8125 
L 19.671875 30.8125 
L 19.671875 0 
L 9.8125 0 
L 9.8125 72.90625 
L 32.078125 72.90625 
Q 44.578125 72.90625 50.734375 67.671875 
Q 56.890625 62.453125 56.890625 51.90625 
Q 56.890625 45.015625 53.6875 40.46875 
Q 50.484375 35.9375 44.390625 34.1875 
z
M 19.671875 64.796875 
L 19.671875 38.921875 
L 32.078125 38.921875 
Q 39.203125 38.921875 42.84375 42.21875 
Q 46.484375 45.515625 46.484375 51.90625 
Q 46.484375 58.296875 42.84375 61.546875 
Q 39.203125 64.796875 32.078125 64.796875 
z
" id="DejaVuSans-82"/>
      <path d="M 9.421875 54.6875 
L 18.40625 54.6875 
L 18.40625 0 
L 9.421875 0 
z
M 9.421875 75.984375 
L 18.40625 75.984375 
L 18.40625 64.59375 
L 9.421875 64.59375 
z
" id="DejaVuSans-105"/>
      <path d="M 45.40625 27.984375 
Q 45.40625 37.75 41.375 43.109375 
Q 37.359375 48.484375 30.078125 48.484375 
Q 22.859375 48.484375 18.828125 43.109375 
Q 14.796875 37.75 14.796875 27.984375 
Q 14.796875 18.265625 18.828125 12.890625 
Q 22.859375 7.515625 30.078125 7.515625 
Q 37.359375 7.515625 41.375 12.890625 
Q 45.40625 18.265625 45.40625 27.984375 
z
M 54.390625 6.78125 
Q 54.390625 -7.171875 48.1875 -13.984375 
Q 42 -20.796875 29.203125 -20.796875 
Q 24.46875 -20.796875 20.265625 -20.09375 
Q 16.0625 -19.390625 12.109375 -17.921875 
L 12.109375 -9.1875 
Q 16.0625 -11.328125 19.921875 -12.34375 
Q 23.78125 -13.375 27.78125 -13.375 
Q 36.625 -13.375 41.015625 -8.765625 
Q 45.40625 -4.15625 45.40625 5.171875 
L 45.40625 9.625 
Q 42.625 4.78125 38.28125 2.390625 
Q 33.9375 0 27.875 0 
Q 17.828125 0 11.671875 7.65625 
Q 5.515625 15.328125 5.515625 27.984375 
Q 5.515625 40.671875 11.671875 48.328125 
Q 17.828125 56 27.875 56 
Q 33.9375 56 38.28125 53.609375 
Q 42.625 51.21875 45.40625 46.390625 
L 45.40625 54.6875 
L 54.390625 54.6875 
z
" id="DejaVuSans-103"/>
     </defs>
     <g style="fill:#262626;" transform="translate(90.629531 550.728438)rotate(-90)scale(0.2 -0.2)">
      <use xlink:href="#DejaVuSans-83"/>
      <use x="63.476562" xlink:href="#DejaVuSans-101"/>
      <use x="125" xlink:href="#DejaVuSans-110"/>
      <use x="188.378906" xlink:href="#DejaVuSans-115"/>
      <use x="240.478516" xlink:href="#DejaVuSans-111"/>
      <use x="301.660156" xlink:href="#DejaVuSans-114"/>
      <use x="342.773438" xlink:href="#DejaVuSans-32"/>
      <use x="374.560547" xlink:href="#DejaVuSans-82"/>
      <use x="439.542969" xlink:href="#DejaVuSans-101"/>
      <use x="501.066406" xlink:href="#DejaVuSans-97"/>
      <use x="562.345703" xlink:href="#DejaVuSans-100"/>
      <use x="625.822266" xlink:href="#DejaVuSans-105"/>
      <use x="653.605469" xlink:href="#DejaVuSans-110"/>
      <use x="716.984375" xlink:href="#DejaVuSans-103"/>
     </g>
    </g>
   </g>
   <g id="line2d_14">
    <path clip-path="url(#p91f7850557)" d="M 173.045455 690.791881 
L 179.548951 687.104208 
L 186.052448 687.294144 
L 192.555944 686.578954 
L 199.059441 686.600585 
L 205.562937 686.022436 
L 212.066434 686.574219 
L 218.56993 686.952346 
L 225.073427 685.859563 
L 231.576923 687.498373 
L 238.08042 690.30745 
L 244.583916 686.370668 
L 251.087413 682.922657 
L 257.590909 684.729511 
L 264.094406 682.582072 
L 270.597902 682.869386 
L 277.101399 688.240157 
L 283.604895 685.938463 
L 290.108392 684.465848 
L 296.611888 684.583725 
L 303.115385 682.801241 
L 309.618881 684.021478 
L 316.122378 689.682897 
L 322.625874 688.93541 
L 329.129371 677.893489 
L 335.632867 672.516133 
L 342.136364 677.249241 
L 348.63986 672.825315 
L 355.143357 667.199534 
L 361.646853 679.179542 
L 368.15035 694.17416 
L 374.653846 695.501259 
L 381.157343 686.823133 
L 387.660839 679.988462 
L 394.164336 679.364619 
L 400.667832 682.517872 
L 407.171329 691.396059 
L 413.674825 699.390608 
L 420.178322 705.221396 
L 426.681818 707.547567 
L 433.185315 707.412871 
L 439.688811 705.907902 
L 446.192308 701.567052 
L 452.695804 694.148346 
L 459.199301 695.181183 
L 465.702797 701.728262 
L 472.206294 697.400432 
L 478.70979 692.606309 
L 485.213287 690.845976 
L 491.716783 688.819991 
L 498.22028 676.393632 
L 504.723776 660.051685 
L 511.227273 653.192393 
L 517.730769 655.956263 
L 524.234266 656.193117 
L 530.737762 652.572119 
L 537.241259 648.732223 
L 543.744755 645.308781 
L 550.248252 652.361469 
L 556.751748 663.901094 
L 563.255245 671.950858 
L 569.758741 668.603671 
L 576.262238 670.5593 
L 582.765734 682.175549 
L 589.269231 682.853947 
L 595.772727 685.753802 
L 602.276224 689.300904 
L 608.77972 695.220765 
L 615.283217 694.783759 
L 621.786713 690.480643 
L 628.29021 697.325547 
L 634.793706 710.766375 
L 641.297203 720.624588 
L 647.800699 717.326919 
L 654.304196 715.963846 
L 660.807692 717.720132 
L 667.311189 724.22605 
L 673.814685 730.893793 
L 680.318182 724.359869 
L 686.821678 711.341708 
L 693.325175 711.421878 
L 699.828671 706.062364 
L 706.332168 683.539633 
L 712.835664 662.601735 
L 719.339161 674.592378 
L 725.842657 685.308969 
L 732.346154 688.484877 
L 738.84965 693.606041 
L 745.353147 692.939802 
L 751.856643 688.257605 
L 758.36014 684.772031 
L 764.863636 685.679749 
L 771.367133 689.929144 
L 777.870629 686.942351 
L 784.374126 681.700379 
L 790.877622 676.84748 
L 797.381119 680.913776 
L 803.884615 683.844409 
L 810.388112 677.162311 
L 816.891608 676.03729 
L 823.395105 691.175824 
L 829.898601 697.221528 
L 836.402098 697.265078 
L 842.905594 699.314894 
L 849.409091 703.30631 
L 855.912587 706.444804 
L 862.416084 700.714315 
L 868.91958 699.094672 
L 875.423077 702.154049 
L 881.926573 700.269134 
L 888.43007 701.999508 
L 894.933566 703.828225 
L 901.437063 704.132875 
L 907.940559 699.101092 
L 914.444056 695.180294 
L 920.947552 694.700006 
L 927.451049 698.568639 
L 933.954545 695.501933 
" style="fill:none;stroke:#fb694a;stroke-linecap:round;stroke-width:1.5;"/>
   </g>
   <g id="line2d_15"/>
   <g id="line2d_16"/>
   <g id="line2d_17">
    <path clip-path="url(#p91f7850557)" d="M 173.045455 704.006135 
L 179.548951 704.985394 
L 186.052448 707.903484 
L 192.555944 707.423233 
L 199.059441 707.753255 
L 205.562937 712.393706 
L 212.066434 717.704381 
L 218.56993 719.880052 
L 225.073427 721.531271 
L 231.576923 722.188736 
L 238.08042 723.511601 
L 244.583916 731.562523 
L 251.087413 738.740309 
L 257.590909 741.09825 
L 264.094406 745.342639 
L 270.597902 748.076959 
L 277.101399 741.980861 
L 283.604895 740.233468 
L 290.108392 746.217555 
L 296.611888 745.123657 
L 303.115385 735.768761 
L 309.618881 738.523252 
L 316.122378 733.808236 
L 322.625874 716.852858 
L 329.129371 705.787312 
L 335.632867 694.960679 
L 342.136364 676.119475 
L 348.63986 659.752742 
L 355.143357 647.891049 
L 361.646853 637.220578 
L 368.15035 627.406147 
L 374.653846 630.48119 
L 381.157343 646.395961 
L 387.660839 660.635206 
L 394.164336 667.903121 
L 400.667832 673.151693 
L 407.171329 677.64374 
L 413.674825 680.546466 
L 420.178322 685.864964 
L 426.681818 691.059838 
L 433.185315 693.681297 
L 439.688811 698.119511 
L 446.192308 699.839977 
L 452.695804 696.31206 
L 459.199301 693.107744 
L 465.702797 685.834337 
L 472.206294 682.69931 
L 478.70979 674.5029 
L 485.213287 670.669438 
L 491.716783 668.376742 
L 498.22028 655.867426 
L 504.723776 652.267619 
L 511.227273 662.798713 
L 517.730769 676.882557 
L 524.234266 686.660282 
L 530.737762 682.706256 
L 537.241259 684.014313 
L 543.744755 684.398777 
L 550.248252 685.232071 
L 556.751748 689.174411 
L 563.255245 689.420378 
L 569.758741 692.598633 
L 576.262238 699.376046 
L 582.765734 705.007936 
L 589.269231 718.909974 
L 595.772727 710.717741 
L 602.276224 694.105427 
L 608.77972 688.119935 
L 615.283217 681.240232 
L 621.786713 673.666323 
L 628.29021 678.268305 
L 634.793706 691.612698 
L 641.297203 699.532887 
L 647.800699 701.799803 
L 654.304196 697.853541 
L 660.807692 691.109881 
L 667.311189 682.034284 
L 673.814685 674.841852 
L 680.318182 666.647026 
L 686.821678 659.733546 
L 693.325175 671.680802 
L 699.828671 681.670324 
L 706.332168 678.392268 
L 712.835664 683.536316 
L 719.339161 706.599246 
L 725.842657 717.931744 
L 732.346154 719.016826 
L 738.84965 723.449453 
L 745.353147 725.755683 
L 751.856643 726.429965 
L 758.36014 726.487472 
L 764.863636 717.166744 
L 771.367133 713.368793 
L 777.870629 713.694592 
L 784.374126 712.357295 
L 790.877622 718.973505 
L 797.381119 725.544251 
L 803.884615 723.385189 
L 810.388112 721.911575 
L 816.891608 721.454261 
L 823.395105 718.037457 
L 829.898601 712.677825 
L 836.402098 707.900439 
L 842.905594 700.966544 
L 849.409091 696.205116 
L 855.912587 696.125426 
L 862.416084 695.645298 
L 868.91958 696.372269 
L 875.423077 695.86058 
L 881.926573 697.955326 
L 888.43007 700.742768 
L 894.933566 701.34033 
L 901.437063 701.277794 
L 907.940559 697.425795 
L 914.444056 697.247084 
L 920.947552 695.14269 
L 927.451049 694.175083 
L 933.954545 693.382462 
" style="fill:none;stroke:#6aaed6;stroke-linecap:round;stroke-width:1.5;"/>
   </g>
   <g id="line2d_18"/>
   <g id="line2d_19"/>
   <g id="line2d_20">
    <path clip-path="url(#p91f7850557)" d="M 173.045455 690.908304 
L 179.548951 682.910925 
L 186.052448 677.456033 
L 192.555944 681.846785 
L 199.059441 683.823827 
L 205.562937 683.229793 
L 212.066434 688.824468 
L 218.56993 695.546991 
L 225.073427 699.619555 
L 231.576923 702.768533 
L 238.08042 709.041915 
L 244.583916 703.375118 
L 251.087413 693.187264 
L 257.590909 695.258318 
L 264.094406 705.190657 
L 270.597902 710.282747 
L 277.101399 720.466402 
L 283.604895 718.716393 
L 290.108392 701.911899 
L 296.611888 696.500138 
L 303.115385 698.821303 
L 309.618881 700.64771 
L 316.122378 716.060197 
L 322.625874 739.580329 
L 329.129371 748.229122 
L 335.632867 731.244014 
L 342.136364 726.170325 
L 348.63986 702.638414 
L 355.143357 689.250655 
L 361.646853 702.108382 
L 368.15035 710.120272 
L 374.653846 698.195361 
L 381.157343 673.138035 
L 387.660839 656.704803 
L 394.164336 659.454933 
L 400.667832 676.751315 
L 407.171329 688.087224 
L 413.674825 689.892637 
L 420.178322 694.420332 
L 426.681818 693.914582 
L 433.185315 688.169812 
L 439.688811 684.857648 
L 446.192308 692.527591 
L 452.695804 702.326292 
L 459.199301 713.726404 
L 465.702797 719.818987 
L 472.206294 713.167721 
L 478.70979 704.717742 
L 485.213287 708.01254 
L 491.716783 736.625812 
L 498.22028 756.446032 
L 504.723776 727.882621 
L 511.227273 679.462189 
L 517.730769 652.386187 
L 524.234266 659.265937 
L 530.737762 683.731097 
L 537.241259 702.886349 
L 543.744755 709.470695 
L 550.248252 705.81362 
L 556.751748 696.766351 
L 563.255245 691.273344 
L 569.758741 680.361908 
L 576.262238 670.52568 
L 582.765734 673.088127 
L 589.269231 678.89977 
L 595.772727 707.624482 
L 602.276224 752.311349 
L 608.77972 743.824059 
L 615.283217 707.077469 
L 621.786713 688.643545 
L 628.29021 666.433218 
L 634.793706 660.657636 
L 641.297203 675.933134 
L 647.800699 690.812532 
L 654.304196 700.185293 
L 660.807692 699.367776 
L 667.311189 697.440349 
L 673.814685 685.094515 
L 680.318182 658.422826 
L 686.821678 633.037478 
L 693.325175 646.497714 
L 699.828671 670.055312 
L 706.332168 702.766804 
L 712.835664 713.496932 
L 719.339161 724.736066 
L 725.842657 746.566888 
L 732.346154 772.857421 
L 738.84965 765.210278 
L 745.353147 725.191182 
L 751.856643 690.236343 
L 758.36014 678.211137 
L 764.863636 693.660874 
L 771.367133 700.13611 
L 777.870629 691.104524 
L 784.374126 693.226629 
L 790.877622 694.57092 
L 797.381119 696.47672 
L 803.884615 700.466109 
L 810.388112 694.802847 
L 816.891608 691.968044 
L 823.395105 702.75393 
L 829.898601 697.676104 
L 836.402098 686.363458 
L 842.905594 683.567989 
L 849.409091 686.417642 
L 855.912587 688.701527 
L 862.416084 693.427511 
L 868.91958 696.008791 
L 875.423077 704.162579 
L 881.926573 701.685684 
L 888.43007 698.933871 
L 894.933566 701.532548 
L 901.437063 699.003878 
L 907.940559 693.792567 
L 914.444056 689.33613 
L 920.947552 698.649396 
L 927.451049 708.366373 
L 933.954545 682.272262 
" style="fill:none;stroke:#959595;stroke-linecap:round;stroke-width:1.5;"/>
   </g>
   <g id="line2d_21"/>
   <g id="line2d_22"/>
   <g id="line2d_23">
    <path clip-path="url(#p91f7850557)" d="M 173.045455 711.70864 
L 179.548951 704.13585 
L 186.052448 719.999126 
L 192.555944 740.415595 
L 199.059441 733.853073 
L 205.562937 733.438229 
L 212.066434 756.544829 
L 218.56993 759.96403 
L 225.073427 764.824652 
L 231.576923 773.730411 
L 238.08042 783.463565 
L 244.583916 764.492994 
L 251.087413 772.804564 
L 257.590909 784.275247 
L 264.094406 771.360217 
L 270.597902 776.394171 
L 277.101399 767.47604 
L 283.604895 730.554756 
L 290.108392 713.462736 
L 296.611888 718.849534 
L 303.115385 713.258003 
L 309.618881 703.171531 
L 316.122378 730.658995 
L 322.625874 748.486682 
L 329.129371 704.063886 
L 335.632867 660.106799 
L 342.136364 629.889047 
L 348.63986 549.275816 
L 355.143357 538.668599 
L 361.646853 538.986062 
L 368.15035 534.46729 
L 374.653846 556.568894 
L 381.157343 588.414312 
L 387.660839 632.10392 
L 394.164336 678.451933 
L 400.667832 704.144221 
L 407.171329 699.48293 
L 413.674825 686.220075 
L 420.178322 679.466562 
L 426.681818 673.328002 
L 433.185315 670.60144 
L 439.688811 681.725907 
L 446.192308 688.747157 
L 452.695804 688.314274 
L 459.199301 693.932434 
L 465.702797 682.810432 
L 472.206294 665.887859 
L 478.70979 666.463147 
L 485.213287 695.259154 
L 491.716783 732.261491 
L 498.22028 690.438776 
L 504.723776 602.22964 
L 511.227273 576.555803 
L 517.730769 606.22173 
L 524.234266 661.572839 
L 530.737762 691.688124 
L 537.241259 691.331663 
L 543.744755 680.16013 
L 550.248252 657.340308 
L 556.751748 645.33849 
L 563.255245 656.748451 
L 569.758741 664.399433 
L 576.262238 672.517291 
L 582.765734 689.411801 
L 589.269231 720.405669 
L 595.772727 780.024925 
L 602.276224 782.92759 
L 608.77972 664.674676 
L 615.283217 662.352843 
L 621.786713 635.585892 
L 628.29021 614.770073 
L 634.793706 655.681155 
L 641.297203 702.826127 
L 647.800699 727.013408 
L 654.304196 715.480965 
L 660.807692 684.198919 
L 667.311189 656.71799 
L 673.814685 623.289874 
L 680.318182 604.345747 
L 686.821678 629.140781 
L 693.325175 709.05648 
L 699.828671 742.695238 
L 706.332168 800.28 
L 712.835664 759.844087 
L 719.339161 763.003556 
L 725.842657 777.780606 
L 732.346154 775.254976 
L 738.84965 715.624636 
L 745.353147 685.26161 
L 751.856643 664.656472 
L 758.36014 673.655883 
L 764.863636 684.844852 
L 771.367133 648.226891 
L 777.870629 658.055061 
L 784.374126 673.70277 
L 790.877622 674.254734 
L 797.381119 679.92934 
L 803.884615 685.309186 
L 810.388112 668.744347 
L 816.891608 661.741404 
L 823.395105 653.733925 
L 829.898601 640.942458 
L 836.402098 651.258602 
L 842.905594 667.338406 
L 849.409091 675.119502 
L 855.912587 695.705157 
L 862.416084 703.448819 
L 868.91958 714.891143 
L 875.423077 720.79378 
L 881.926573 700.898735 
L 888.43007 696.164791 
L 894.933566 691.895468 
L 901.437063 680.749302 
L 907.940559 683.020397 
L 914.444056 682.409983 
L 920.947552 675.899788 
L 927.451049 636.461263 
L 933.954545 702.818362 
" style="fill:none;stroke:#fd8c3b;stroke-linecap:round;stroke-width:1.5;"/>
   </g>
   <g id="line2d_24"/>
   <g id="line2d_25"/>
   <g id="line2d_26">
    <path clip-path="url(#p91f7850557)" d="M 173.045455 679.643191 
L 179.548951 683.818848 
L 186.052448 688.968913 
L 192.555944 698.557026 
L 199.059441 694.556923 
L 205.562937 699.499186 
L 212.066434 722.044527 
L 218.56993 729.361221 
L 225.073427 731.429583 
L 231.576923 736.631049 
L 238.08042 734.097049 
L 244.583916 703.089569 
L 251.087413 705.647573 
L 257.590909 735.157912 
L 264.094406 744.94938 
L 270.597902 754.424014 
L 277.101399 766.116574 
L 283.604895 709.903101 
L 290.108392 704.665786 
L 296.611888 739.365762 
L 303.115385 730.676045 
L 309.618881 751.284683 
L 316.122378 777.659973 
L 322.625874 751.380656 
L 329.129371 715.247479 
L 335.632867 685.063026 
L 342.136364 688.940547 
L 348.63986 632.244205 
L 355.143357 640.034488 
L 361.646853 713.236454 
L 368.15035 723.773194 
L 374.653846 670.029992 
L 381.157343 617.468251 
L 387.660839 614.347005 
L 394.164336 646.498756 
L 400.667832 634.549281 
L 407.171329 626.753722 
L 413.674825 650.392589 
L 420.178322 658.744419 
L 426.681818 642.423337 
L 433.185315 623.388162 
L 439.688811 635.489997 
L 446.192308 665.181649 
L 452.695804 663.324245 
L 459.199301 651.711483 
L 465.702797 635.738036 
L 472.206294 611.270133 
L 478.70979 623.667156 
L 485.213287 654.937427 
L 491.716783 697.108426 
L 498.22028 696.7962 
L 504.723776 627.385192 
L 511.227273 622.496423 
L 517.730769 655.738986 
L 524.234266 665.791202 
L 530.737762 672.385402 
L 537.241259 644.732724 
L 543.744755 606.252388 
L 550.248252 611.026366 
L 556.751748 619.872668 
L 563.255245 623.410306 
L 569.758741 603.033333 
L 576.262238 641.637053 
L 582.765734 689.531288 
L 589.269231 694.061865 
L 595.772727 724.722011 
L 602.276224 726.845362 
L 608.77972 635.329598 
L 615.283217 608.231645 
L 621.786713 653.916998 
L 628.29021 646.779321 
L 634.793706 648.148825 
L 641.297203 650.521172 
L 647.800699 614.871966 
L 654.304196 602.389722 
L 660.807692 624.871302 
L 667.311189 650.579401 
L 673.814685 649.081298 
L 680.318182 608.189394 
L 686.821678 595.754403 
L 693.325175 649.256007 
L 699.828671 668.796365 
L 706.332168 652.481245 
L 712.835664 647.923317 
L 719.339161 702.219347 
L 725.842657 737.703621 
L 732.346154 699.457337 
L 738.84965 599.543812 
L 745.353147 531.256578 
L 751.856643 559.582412 
L 758.36014 624.656657 
L 764.863636 713.969073 
L 771.367133 716.690613 
L 777.870629 678.493126 
L 784.374126 689.68222 
L 790.877622 673.454715 
L 797.381119 681.277227 
L 803.884615 682.157674 
L 810.388112 659.422137 
L 816.891608 679.633622 
L 823.395105 713.701681 
L 829.898601 680.086432 
L 836.402098 667.473038 
L 842.905594 687.298528 
L 849.409091 689.748485 
L 855.912587 667.823887 
L 862.416084 676.970278 
L 868.91958 681.636337 
L 875.423077 685.435537 
L 881.926573 679.132822 
L 888.43007 695.625996 
L 894.933566 714.840984 
L 901.437063 698.919739 
L 907.940559 686.659748 
L 914.444056 692.890919 
L 920.947552 681.126244 
L 927.451049 571.249786 
L 933.954545 593.162302 
" style="fill:none;stroke:#9e9ac8;stroke-linecap:round;stroke-width:1.5;"/>
   </g>
   <g id="line2d_27"/>
   <g id="line2d_28"/>
   <g id="line2d_29">
    <path clip-path="url(#p91f7850557)" d="M 173.045455 664.67688 
L 179.548951 644.797648 
L 186.052448 635.087383 
L 192.555944 632.740214 
L 199.059441 617.656869 
L 205.562937 590.813195 
L 212.066434 575.914478 
L 218.56993 575.194894 
L 225.073427 558.646755 
L 231.576923 544.887765 
L 238.08042 532.396097 
L 244.583916 514.771508 
L 251.087413 487.798781 
L 257.590909 473.03919 
L 264.094406 450.696737 
L 270.597902 439.828324 
L 277.101399 440.420289 
L 283.604895 434.172781 
L 290.108392 418.657962 
L 296.611888 433.206883 
L 303.115385 430.914878 
L 309.618881 415.326393 
L 316.122378 440.821777 
L 322.625874 480.214189 
L 329.129371 485.164659 
L 335.632867 464.887224 
L 342.136364 449.289477 
L 348.63986 441.722716 
L 355.143357 408.007026 
L 361.646853 374.324619 
L 368.15035 380.872071 
L 374.653846 396.840956 
L 381.157343 398.401058 
L 387.660839 386.549519 
L 394.164336 368.874435 
L 400.667832 341.875079 
L 407.171329 314.606098 
L 413.674825 296.957381 
L 420.178322 293.564497 
L 426.681818 288.155684 
L 433.185315 289.714582 
L 439.688811 281.11931 
L 446.192308 283.623636 
L 452.695804 250.303692 
L 459.199301 211.895964 
L 465.702797 192.154597 
L 472.206294 169.501519 
L 478.70979 145.964421 
L 485.213287 145.08 
L 491.716783 186.051826 
L 498.22028 224.687868 
L 504.723776 236.063111 
L 511.227273 259.490945 
L 517.730769 317.462915 
L 524.234266 394.618943 
L 530.737762 456.824793 
L 537.241259 492.364559 
L 543.744755 503.788243 
L 550.248252 493.954763 
L 556.751748 499.002487 
L 563.255245 515.209366 
L 569.758741 513.436324 
L 576.262238 471.020622 
L 582.765734 454.613664 
L 589.269231 465.617954 
L 595.772727 474.442003 
L 602.276224 449.484293 
L 608.77972 404.943446 
L 615.283217 394.721013 
L 621.786713 372.912157 
L 628.29021 323.578313 
L 634.793706 320.196729 
L 641.297203 364.68577 
L 647.800699 393.712169 
L 654.304196 378.569105 
L 660.807692 341.352966 
L 667.311189 308.305455 
L 673.814685 293.049763 
L 680.318182 287.137331 
L 686.821678 263.588964 
L 693.325175 256.420047 
L 699.828671 329.741443 
L 706.332168 384.566132 
L 712.835664 363.208626 
L 719.339161 379.273592 
L 725.842657 482.491637 
L 732.346154 555.906473 
L 738.84965 603.807263 
L 745.353147 656.941862 
L 751.856643 681.500262 
L 758.36014 682.45283 
L 764.863636 684.958256 
L 771.367133 707.009815 
L 777.870629 731.614315 
L 784.374126 736.557422 
L 790.877622 719.820685 
L 797.381119 693.078356 
L 803.884615 713.158437 
L 810.388112 697.8491 
L 816.891608 643.57468 
L 823.395105 630.473039 
L 829.898601 654.021252 
L 836.402098 663.579555 
L 842.905594 672.260437 
L 849.409091 677.013784 
L 855.912587 708.638199 
L 862.416084 729.54588 
L 868.91958 726.100908 
L 875.423077 730.189704 
L 881.926573 734.433214 
L 888.43007 722.234526 
L 894.933566 728.500907 
L 901.437063 740.150235 
L 907.940559 744.886875 
L 914.444056 745.153099 
L 920.947552 746.522673 
L 927.451049 773.628549 
L 933.954545 768.522056 
" style="fill:none;stroke:#73c476;stroke-linecap:round;stroke-width:1.5;"/>
   </g>
   <g id="line2d_30"/>
   <g id="line2d_31"/>
   <g id="patch_3">
    <path d="M 135 833.04 
L 135 112.32 
" style="fill:none;stroke:#ffffff;stroke-linecap:square;stroke-linejoin:miter;stroke-width:1.25;"/>
   </g>
   <g id="patch_4">
    <path d="M 972 833.04 
L 972 112.32 
" style="fill:none;stroke:#ffffff;stroke-linecap:square;stroke-linejoin:miter;stroke-width:1.25;"/>
   </g>
   <g id="patch_5">
    <path d="M 135 833.04 
L 972 833.04 
" style="fill:none;stroke:#ffffff;stroke-linecap:square;stroke-linejoin:miter;stroke-width:1.25;"/>
   </g>
   <g id="patch_6">
    <path d="M 135 112.32 
L 972 112.32 
" style="fill:none;stroke:#ffffff;stroke-linecap:square;stroke-linejoin:miter;stroke-width:1.25;"/>
   </g>
   <g id="legend_1">
    <g id="patch_7">
     <path d="M 891.394063 316.706875 
L 964.3 316.706875 
Q 966.5 316.706875 966.5 314.506875 
L 966.5 120.02 
Q 966.5 117.82 964.3 117.82 
L 891.394063 117.82 
Q 889.194062 117.82 889.194062 120.02 
L 889.194062 314.506875 
Q 889.194062 316.706875 891.394063 316.706875 
z
" style="fill:#eaeaf2;opacity:0.8;stroke:#cccccc;stroke-linejoin:miter;"/>
    </g>
    <g id="line2d_32">
     <path d="M 893.594062 126.728281 
L 915.594062 126.728281 
" style="fill:none;"/>
    </g>
    <g id="line2d_33"/>
    <g id="text_16">
     <!-- Sensor -->
     <g style="fill:#262626;" transform="translate(924.394062 130.578281)scale(0.11 -0.11)">
      <use xlink:href="#DejaVuSans-83"/>
      <use x="63.476562" xlink:href="#DejaVuSans-101"/>
      <use x="125" xlink:href="#DejaVuSans-110"/>
      <use x="188.378906" xlink:href="#DejaVuSans-115"/>
      <use x="240.478516" xlink:href="#DejaVuSans-111"/>
      <use x="301.660156" xlink:href="#DejaVuSans-114"/>
     </g>
    </g>
    <g id="line2d_34">
     <path d="M 893.594062 142.874219 
L 915.594062 142.874219 
" style="fill:none;stroke:#fb694a;stroke-linecap:round;stroke-width:1.5;"/>
    </g>
    <g id="line2d_35"/>
    <g id="text_17">
     <!-- acc_x -->
     <defs>
      <path d="M 48.78125 52.59375 
L 48.78125 44.1875 
Q 44.96875 46.296875 41.140625 47.34375 
Q 37.3125 48.390625 33.40625 48.390625 
Q 24.65625 48.390625 19.8125 42.84375 
Q 14.984375 37.3125 14.984375 27.296875 
Q 14.984375 17.28125 19.8125 11.734375 
Q 24.65625 6.203125 33.40625 6.203125 
Q 37.3125 6.203125 41.140625 7.25 
Q 44.96875 8.296875 48.78125 10.40625 
L 48.78125 2.09375 
Q 45.015625 0.34375 40.984375 -0.53125 
Q 36.96875 -1.421875 32.421875 -1.421875 
Q 20.0625 -1.421875 12.78125 6.34375 
Q 5.515625 14.109375 5.515625 27.296875 
Q 5.515625 40.671875 12.859375 48.328125 
Q 20.21875 56 33.015625 56 
Q 37.15625 56 41.109375 55.140625 
Q 45.0625 54.296875 48.78125 52.59375 
z
" id="DejaVuSans-99"/>
      <path d="M 50.984375 -16.609375 
L 50.984375 -23.578125 
L -0.984375 -23.578125 
L -0.984375 -16.609375 
z
" id="DejaVuSans-95"/>
     </defs>
     <g style="fill:#262626;" transform="translate(924.394062 146.724219)scale(0.11 -0.11)">
      <use xlink:href="#DejaVuSans-97"/>
      <use x="61.279297" xlink:href="#DejaVuSans-99"/>
      <use x="116.259766" xlink:href="#DejaVuSans-99"/>
      <use x="171.240234" xlink:href="#DejaVuSans-95"/>
      <use x="221.240234" xlink:href="#DejaVuSans-120"/>
     </g>
    </g>
    <g id="line2d_36">
     <path d="M 893.594062 159.326094 
L 915.594062 159.326094 
" style="fill:none;"/>
    </g>
    <g id="line2d_37"/>
    <g id="text_18">
     <!-- Sensor -->
     <g style="fill:#262626;" transform="translate(924.394062 163.176094)scale(0.11 -0.11)">
      <use xlink:href="#DejaVuSans-83"/>
      <use x="63.476562" xlink:href="#DejaVuSans-101"/>
      <use x="125" xlink:href="#DejaVuSans-110"/>
      <use x="188.378906" xlink:href="#DejaVuSans-115"/>
      <use x="240.478516" xlink:href="#DejaVuSans-111"/>
      <use x="301.660156" xlink:href="#DejaVuSans-114"/>
     </g>
    </g>
    <g id="line2d_38">
     <path d="M 893.594062 175.472031 
L 915.594062 175.472031 
" style="fill:none;stroke:#6aaed6;stroke-linecap:round;stroke-width:1.5;"/>
    </g>
    <g id="line2d_39"/>
    <g id="text_19">
     <!-- acc_y -->
     <defs>
      <path d="M 32.171875 -5.078125 
Q 28.375 -14.84375 24.75 -17.8125 
Q 21.140625 -20.796875 15.09375 -20.796875 
L 7.90625 -20.796875 
L 7.90625 -13.28125 
L 13.1875 -13.28125 
Q 16.890625 -13.28125 18.9375 -11.515625 
Q 21 -9.765625 23.484375 -3.21875 
L 25.09375 0.875 
L 2.984375 54.6875 
L 12.5 54.6875 
L 29.59375 11.921875 
L 46.6875 54.6875 
L 56.203125 54.6875 
z
" id="DejaVuSans-121"/>
     </defs>
     <g style="fill:#262626;" transform="translate(924.394062 179.322031)scale(0.11 -0.11)">
      <use xlink:href="#DejaVuSans-97"/>
      <use x="61.279297" xlink:href="#DejaVuSans-99"/>
      <use x="116.259766" xlink:href="#DejaVuSans-99"/>
      <use x="171.240234" xlink:href="#DejaVuSans-95"/>
      <use x="221.240234" xlink:href="#DejaVuSans-121"/>
     </g>
    </g>
    <g id="line2d_40">
     <path d="M 893.594062 191.923906 
L 915.594062 191.923906 
" style="fill:none;"/>
    </g>
    <g id="line2d_41"/>
    <g id="text_20">
     <!-- Sensor -->
     <g style="fill:#262626;" transform="translate(924.394062 195.773906)scale(0.11 -0.11)">
      <use xlink:href="#DejaVuSans-83"/>
      <use x="63.476562" xlink:href="#DejaVuSans-101"/>
      <use x="125" xlink:href="#DejaVuSans-110"/>
      <use x="188.378906" xlink:href="#DejaVuSans-115"/>
      <use x="240.478516" xlink:href="#DejaVuSans-111"/>
      <use x="301.660156" xlink:href="#DejaVuSans-114"/>
     </g>
    </g>
    <g id="line2d_42">
     <path d="M 893.594062 208.069844 
L 915.594062 208.069844 
" style="fill:none;stroke:#959595;stroke-linecap:round;stroke-width:1.5;"/>
    </g>
    <g id="line2d_43"/>
    <g id="text_21">
     <!-- acc_z -->
     <defs>
      <path d="M 5.515625 54.6875 
L 48.1875 54.6875 
L 48.1875 46.484375 
L 14.40625 7.171875 
L 48.1875 7.171875 
L 48.1875 0 
L 4.296875 0 
L 4.296875 8.203125 
L 38.09375 47.515625 
L 5.515625 47.515625 
z
" id="DejaVuSans-122"/>
     </defs>
     <g style="fill:#262626;" transform="translate(924.394062 211.919844)scale(0.11 -0.11)">
      <use xlink:href="#DejaVuSans-97"/>
      <use x="61.279297" xlink:href="#DejaVuSans-99"/>
      <use x="116.259766" xlink:href="#DejaVuSans-99"/>
      <use x="171.240234" xlink:href="#DejaVuSans-95"/>
      <use x="221.240234" xlink:href="#DejaVuSans-122"/>
     </g>
    </g>
    <g id="line2d_44">
     <path d="M 893.594062 224.521719 
L 915.594062 224.521719 
" style="fill:none;"/>
    </g>
    <g id="line2d_45"/>
    <g id="text_22">
     <!-- Sensor -->
     <g style="fill:#262626;" transform="translate(924.394062 228.371719)scale(0.11 -0.11)">
      <use xlink:href="#DejaVuSans-83"/>
      <use x="63.476562" xlink:href="#DejaVuSans-101"/>
      <use x="125" xlink:href="#DejaVuSans-110"/>
      <use x="188.378906" xlink:href="#DejaVuSans-115"/>
      <use x="240.478516" xlink:href="#DejaVuSans-111"/>
      <use x="301.660156" xlink:href="#DejaVuSans-114"/>
     </g>
    </g>
    <g id="line2d_46">
     <path d="M 893.594062 240.667656 
L 915.594062 240.667656 
" style="fill:none;stroke:#fd8c3b;stroke-linecap:round;stroke-width:1.5;"/>
    </g>
    <g id="line2d_47"/>
    <g id="text_23">
     <!-- gy_x -->
     <g style="fill:#262626;" transform="translate(924.394062 244.517656)scale(0.11 -0.11)">
      <use xlink:href="#DejaVuSans-103"/>
      <use x="63.476562" xlink:href="#DejaVuSans-121"/>
      <use x="122.65625" xlink:href="#DejaVuSans-95"/>
      <use x="172.65625" xlink:href="#DejaVuSans-120"/>
     </g>
    </g>
    <g id="line2d_48">
     <path d="M 893.594062 257.119531 
L 915.594062 257.119531 
" style="fill:none;"/>
    </g>
    <g id="line2d_49"/>
    <g id="text_24">
     <!-- Sensor -->
     <g style="fill:#262626;" transform="translate(924.394062 260.969531)scale(0.11 -0.11)">
      <use xlink:href="#DejaVuSans-83"/>
      <use x="63.476562" xlink:href="#DejaVuSans-101"/>
      <use x="125" xlink:href="#DejaVuSans-110"/>
      <use x="188.378906" xlink:href="#DejaVuSans-115"/>
      <use x="240.478516" xlink:href="#DejaVuSans-111"/>
      <use x="301.660156" xlink:href="#DejaVuSans-114"/>
     </g>
    </g>
    <g id="line2d_50">
     <path d="M 893.594062 273.265469 
L 915.594062 273.265469 
" style="fill:none;stroke:#9e9ac8;stroke-linecap:round;stroke-width:1.5;"/>
    </g>
    <g id="line2d_51"/>
    <g id="text_25">
     <!-- gy_y -->
     <g style="fill:#262626;" transform="translate(924.394062 277.115469)scale(0.11 -0.11)">
      <use xlink:href="#DejaVuSans-103"/>
      <use x="63.476562" xlink:href="#DejaVuSans-121"/>
      <use x="122.65625" xlink:href="#DejaVuSans-95"/>
      <use x="172.65625" xlink:href="#DejaVuSans-121"/>
     </g>
    </g>
    <g id="line2d_52">
     <path d="M 893.594062 289.717344 
L 915.594062 289.717344 
" style="fill:none;"/>
    </g>
    <g id="line2d_53"/>
    <g id="text_26">
     <!-- Sensor -->
     <g style="fill:#262626;" transform="translate(924.394062 293.567344)scale(0.11 -0.11)">
      <use xlink:href="#DejaVuSans-83"/>
      <use x="63.476562" xlink:href="#DejaVuSans-101"/>
      <use x="125" xlink:href="#DejaVuSans-110"/>
      <use x="188.378906" xlink:href="#DejaVuSans-115"/>
      <use x="240.478516" xlink:href="#DejaVuSans-111"/>
      <use x="301.660156" xlink:href="#DejaVuSans-114"/>
     </g>
    </g>
    <g id="line2d_54">
     <path d="M 893.594062 305.863281 
L 915.594062 305.863281 
" style="fill:none;stroke:#73c476;stroke-linecap:round;stroke-width:1.5;"/>
    </g>
    <g id="line2d_55"/>
    <g id="text_27">
     <!-- gy_z -->
     <g style="fill:#262626;" transform="translate(924.394062 309.713281)scale(0.11 -0.11)">
      <use xlink:href="#DejaVuSans-103"/>
      <use x="63.476562" xlink:href="#DejaVuSans-121"/>
      <use x="122.65625" xlink:href="#DejaVuSans-95"/>
      <use x="172.65625" xlink:href="#DejaVuSans-122"/>
     </g>
    </g>
   </g>
  </g>
 </g>
 <defs>
  <clipPath id="p91f7850557">
   <rect height="720.72" width="837" x="135" y="112.32"/>
  </clipPath>
 </defs>
</svg>
